<?xml version="1.0" encoding="utf-8"?>
<!-- Generator: Adobe Illustrator 24.2.1, SVG Export Plug-In . SVG Version: 6.00 Build 0)  -->
<svg version="1.1" id="Layer_1" xmlns="http://www.w3.org/2000/svg" xmlns:xlink="http://www.w3.org/1999/xlink" x="0px" y="0px"
	 viewBox="0 0 488 149" style="enable-background:new 0 0 488 149;" xml:space="preserve">
<style type="text/css">
	.st0{fill:#fff;}
	.st1{fill:#FFFFFF;}
	.st2{fill:#2B599F;}
	.st3{fill-rule:evenodd;clip-rule:evenodd;fill:#FFFFFF;}
</style>
<path class="st0" d="M183.07,54.75l1.38,0.29l-4.84,15.35h-43.8v-1.54h2.13c2.39,0,4.1-0.78,5.13-2.34
	c0.58-0.89,0.88-2.95,0.88-6.17v-36.5c0-3.53-0.39-5.74-1.17-6.63c-1.08-1.22-2.7-1.84-4.84-1.84h-2.13v-1.54h25.61v1.54
	c-3-0.03-5.11,0.25-6.32,0.83c-1.21,0.58-2.04,1.32-2.48,2.21c-0.44,0.89-0.67,3.02-0.67,6.38v35.54c0,2.31,0.22,3.89,0.67,4.75
	c0.33,0.58,0.85,1.02,1.54,1.29c0.69,0.28,2.86,0.42,6.51,0.42h4.13c4.34,0,7.38-0.32,9.13-0.96c1.75-0.64,3.35-1.77,4.8-3.4
	C180.18,60.81,181.62,58.25,183.07,54.75"/>
<path class="st0" d="M218.44,13.83h19.73v1.54h-1.08c-0.72,0-1.78,0.32-3.17,0.96c-1.39,0.64-2.66,1.56-3.8,2.75
	c-1.14,1.2-2.54,3.14-4.21,5.84L212.27,46.4v14.18c0,3.48,0.39,5.65,1.17,6.51c1.06,1.17,2.72,1.75,5.01,1.75h1.84v1.54h-24.03
	v-1.54h2c2.39,0,4.09-0.72,5.09-2.17c0.61-0.89,0.92-2.92,0.92-6.09V47.2L188.74,23.5c-1.84-2.78-3.08-4.52-3.73-5.21
	c-0.65-0.69-2.01-1.53-4.07-2.5c-0.56-0.28-1.36-0.42-2.42-0.42v-1.54h24.19v1.54h-1.25c-1.31,0-2.51,0.31-3.61,0.92
	c-1.1,0.61-1.65,1.53-1.65,2.75c0,1,0.85,2.81,2.54,5.42l11.8,18.23l11.09-17.44c1.67-2.61,2.5-4.56,2.5-5.84
	c0-0.78-0.2-1.47-0.6-2.09c-0.4-0.61-0.98-1.09-1.73-1.44c-0.75-0.35-1.88-0.52-3.38-0.52V13.83z"/>
<path class="st0" d="M290.85,12.53l1.29,19.23h-1.29c-1.72-5.76-4.19-9.9-7.38-12.43c-3.2-2.53-7.04-3.8-11.51-3.8
	c-3.75,0-7.15,0.95-10.18,2.86c-3.03,1.9-5.42,4.94-7.15,9.11c-1.74,4.17-2.61,9.36-2.61,15.56c0,5.12,0.82,9.55,2.46,13.31
	c1.64,3.75,4.11,6.63,7.4,8.63c3.3,2,7.06,3,11.28,3c3.67,0,6.91-0.79,9.72-2.36c2.81-1.57,5.89-4.69,9.26-9.36l1.29,0.83
	c-2.84,5.03-6.15,8.72-9.93,11.05c-3.78,2.34-8.27,3.5-13.47,3.5c-9.37,0-16.63-3.48-21.77-10.43c-3.84-5.17-5.76-11.26-5.76-18.27
	c0-5.64,1.26-10.83,3.8-15.56c2.53-4.73,6.01-8.39,10.45-10.99c4.43-2.6,9.28-3.9,14.54-3.9c4.09,0,8.12,1,12.1,3
	c1.17,0.61,2,0.92,2.5,0.92c0.75,0,1.4-0.26,1.96-0.79c0.72-0.75,1.24-1.79,1.54-3.13H290.85z"/>
<path class="st0" d="M314.25,16.91v22.36h12.43c3.23,0,5.38-0.49,6.47-1.46c1.45-1.28,2.25-3.53,2.42-6.76h1.54v19.69h-1.54
	c-0.39-2.75-0.78-4.52-1.17-5.3c-0.5-0.97-1.32-1.74-2.46-2.29c-1.14-0.56-2.89-0.83-5.26-0.83h-12.43v18.64
	c0,2.5,0.11,4.03,0.33,4.57c0.22,0.54,0.61,0.97,1.17,1.29c0.56,0.32,1.61,0.48,3.17,0.48h9.59c3.2,0,5.52-0.22,6.97-0.67
	c1.45-0.44,2.84-1.32,4.17-2.63c1.72-1.72,3.49-4.32,5.3-7.8h1.67l-4.88,14.18h-43.59v-1.54h2c1.34,0,2.6-0.32,3.8-0.96
	c0.89-0.44,1.49-1.11,1.81-2c0.32-0.89,0.48-2.71,0.48-5.46V23.67c0-3.59-0.36-5.8-1.08-6.63c-1-1.11-2.67-1.67-5.01-1.67h-2v-1.54
	h43.59l0.63,12.39h-1.63c-0.58-2.98-1.23-5.02-1.94-6.13c-0.71-1.11-1.76-1.96-3.15-2.54c-1.11-0.42-3.07-0.63-5.88-0.63H314.25z"/>
<path class="st0" d="M389.33,15.37v-1.54h20.02v1.54h-2.13c-2.22,0-3.93,0.93-5.13,2.79c-0.58,0.86-0.88,2.86-0.88,6.01v22.94
	c0,5.67-0.56,10.07-1.69,13.2c-1.13,3.13-3.34,5.81-6.63,8.05c-3.3,2.24-7.78,3.36-13.45,3.36c-6.17,0-10.86-1.07-14.06-3.21
	c-3.2-2.14-5.46-5.02-6.8-8.63c-0.89-2.47-1.33-7.12-1.33-13.93V23.84c0-3.48-0.48-5.76-1.44-6.84c-0.96-1.08-2.51-1.63-4.65-1.63
	h-2.13v-1.54h24.44v1.54h-2.17c-2.34,0-4,0.74-5.01,2.21c-0.7,1-1.04,3.09-1.04,6.26v24.65c0,2.2,0.2,4.71,0.61,7.55
	c0.4,2.84,1.13,5.05,2.19,6.63c1.06,1.58,2.58,2.89,4.57,3.92c1.99,1.03,4.43,1.54,7.32,1.54c3.7,0,7.01-0.81,9.93-2.42
	c2.92-1.61,4.91-3.68,5.99-6.19c1.07-2.52,1.61-6.78,1.61-12.78v-22.9c0-3.53-0.39-5.74-1.17-6.63c-1.08-1.22-2.7-1.84-4.84-1.84
	H389.33z"/>
<path class="st0" d="M445.22,70.39L423.36,22.8v37.79c0,3.48,0.38,5.65,1.13,6.51c1.03,1.17,2.66,1.75,4.88,1.75h2v1.54h-19.69
	v-1.54h2c2.39,0,4.09-0.72,5.09-2.17c0.61-0.89,0.92-2.92,0.92-6.09V23.63c0-2.5-0.28-4.31-0.83-5.42
	c-0.39-0.81-1.11-1.48-2.15-2.02c-1.04-0.54-2.72-0.81-5.03-0.81v-1.54h16.02l20.52,44.25l20.19-44.25h16.02v1.54h-1.96
	c-2.42,0-4.13,0.72-5.13,2.17c-0.61,0.89-0.92,2.92-0.92,6.09v36.96c0,3.48,0.39,5.65,1.17,6.51c1.03,1.17,2.66,1.75,4.88,1.75h1.96
	v1.54H460.4v-1.54h2c2.42,0,4.12-0.72,5.09-2.17c0.61-0.89,0.92-2.92,0.92-6.09V22.8L446.6,70.39H445.22z"/>
<path class="st1" d="M185.53,77.29l1.29,19.23h-1.29c-1.72-5.76-4.19-9.9-7.38-12.43c-3.2-2.53-7.04-3.8-11.51-3.8
	c-3.75,0-7.15,0.95-10.18,2.86c-3.03,1.9-5.42,4.94-7.15,9.11c-1.74,4.17-2.61,9.36-2.61,15.56c0,5.12,0.82,9.55,2.46,13.31
	c1.64,3.75,4.11,6.63,7.4,8.63c3.3,2,7.06,3,11.28,3c3.67,0,6.91-0.79,9.72-2.36c2.81-1.57,5.89-4.69,9.26-9.36l1.29,0.83
	c-2.84,5.03-6.15,8.72-9.93,11.05c-3.78,2.34-8.27,3.5-13.47,3.5c-9.37,0-16.63-3.48-21.77-10.43c-3.84-5.17-5.76-11.26-5.76-18.27
	c0-5.64,1.26-10.83,3.8-15.56c2.53-4.73,6.01-8.39,10.45-10.99c4.43-2.6,9.28-3.9,14.54-3.9c4.09,0,8.12,1,12.1,3
	c1.17,0.61,2,0.92,2.5,0.92c0.75,0,1.4-0.26,1.96-0.79c0.72-0.75,1.24-1.79,1.54-3.13H185.53z"/>
<path class="st1" d="M230.84,116.21h-21.9l-3.84,8.93c-0.95,2.2-1.42,3.84-1.42,4.92c0,0.86,0.41,1.62,1.23,2.27
	c0.82,0.65,2.59,1.08,5.32,1.27v1.54h-17.81v-1.54c2.36-0.42,3.89-0.96,4.59-1.63c1.42-1.33,2.99-4.05,4.71-8.13l19.9-46.55h1.46
	l19.69,47.05c1.58,3.78,3.02,6.24,4.32,7.36c1.29,1.13,3.09,1.76,5.4,1.9v1.54h-22.31v-1.54c2.25-0.11,3.77-0.49,4.57-1.13
	c0.79-0.64,1.19-1.42,1.19-2.34c0-1.22-0.56-3.16-1.67-5.8L230.84,116.21z M229.68,113.12l-9.59-22.86l-9.84,22.86H229.68z"/>
<path class="st1" d="M289.09,135.14l-21.86-47.59v37.79c0,3.48,0.38,5.65,1.13,6.51c1.03,1.17,2.66,1.75,4.88,1.75h2v1.54h-19.69
	v-1.54h2c2.39,0,4.09-0.72,5.09-2.17c0.61-0.89,0.92-2.92,0.92-6.09V88.39c0-2.5-0.28-4.31-0.83-5.42
	c-0.39-0.81-1.11-1.48-2.15-2.02c-1.04-0.54-2.72-0.81-5.03-0.81v-1.54h16.02l20.52,44.25l20.19-44.25h16.02v1.54h-1.96
	c-2.42,0-4.13,0.72-5.13,2.17c-0.61,0.89-0.92,2.92-0.92,6.09v36.96c0,3.48,0.39,5.65,1.17,6.51c1.03,1.17,2.66,1.75,4.88,1.75h1.96
	v1.54h-24.02v-1.54h2c2.42,0,4.12-0.72,5.09-2.17c0.61-0.89,0.92-2.92,0.92-6.09V87.55l-21.81,47.59H289.09z"/>
<path class="st1" d="M348.29,108.66v16.48c0,3.56,0.39,5.77,1.17,6.63c1.06,1.22,2.66,1.84,4.8,1.84h2.17v1.54h-24.23v-1.54h2.13
	c2.39,0,4.1-0.78,5.13-2.34c0.56-0.86,0.83-2.91,0.83-6.13V88.59c0-3.56-0.38-5.77-1.13-6.63c-1.08-1.22-2.7-1.84-4.84-1.84h-2.13
	v-1.54h20.73c5.06,0,9.05,0.52,11.97,1.56c2.92,1.04,5.38,2.8,7.38,5.28c2,2.48,3,5.41,3,8.8c0,4.62-1.52,8.37-4.57,11.26
	c-3.04,2.89-7.35,4.34-12.91,4.34c-1.36,0-2.84-0.1-4.42-0.29C351.79,109.34,350.1,109.05,348.29,108.66 M348.29,106.28
	c1.47,0.28,2.78,0.49,3.92,0.63c1.14,0.14,2.11,0.21,2.92,0.21c2.89,0,5.39-1.12,7.49-3.36c2.1-2.24,3.15-5.14,3.15-8.7
	c0-2.45-0.5-4.72-1.5-6.82c-1-2.1-2.42-3.67-4.25-4.71c-1.84-1.04-3.92-1.56-6.26-1.56c-1.42,0-3.24,0.26-5.46,0.79V106.28z"/>
<path class="st1" d="M419.72,80.13v-1.54h20.02v1.54h-2.13c-2.22,0-3.93,0.93-5.13,2.79c-0.58,0.86-0.88,2.86-0.88,6.01v22.94
	c0,5.67-0.56,10.07-1.69,13.2c-1.13,3.13-3.34,5.81-6.63,8.05c-3.3,2.24-7.78,3.36-13.45,3.36c-6.17,0-10.86-1.07-14.06-3.21
	c-3.2-2.14-5.46-5.02-6.8-8.63c-0.89-2.47-1.33-7.12-1.33-13.93V88.59c0-3.48-0.48-5.76-1.44-6.84c-0.96-1.08-2.51-1.63-4.65-1.63
	h-2.13v-1.54h24.44v1.54h-2.17c-2.34,0-4,0.74-5.01,2.21c-0.7,1-1.04,3.09-1.04,6.26v24.65c0,2.2,0.2,4.71,0.61,7.55
	c0.4,2.84,1.13,5.05,2.19,6.63c1.06,1.58,2.58,2.89,4.57,3.92c1.99,1.03,4.43,1.54,7.32,1.54c3.7,0,7.01-0.81,9.93-2.42
	c2.92-1.61,4.91-3.68,5.99-6.19c1.07-2.52,1.61-6.78,1.61-12.78v-22.9c0-3.53-0.39-5.74-1.17-6.63c-1.08-1.22-2.7-1.84-4.84-1.84
	H419.72z"/>
<path class="st1" d="M480.5,77.29v19.56h-1.54c-0.5-3.75-1.4-6.74-2.69-8.97c-1.29-2.22-3.14-3.99-5.53-5.3
	c-2.39-1.31-4.87-1.96-7.42-1.96c-2.89,0-5.28,0.88-7.17,2.65c-1.89,1.77-2.84,3.77-2.84,6.03c0,1.72,0.6,3.29,1.79,4.71
	c1.72,2.09,5.83,4.87,12.3,8.34c5.28,2.84,8.89,5.01,10.82,6.53c1.93,1.52,3.42,3.3,4.46,5.36c1.04,2.06,1.56,4.21,1.56,6.47
	c0,4.28-1.66,7.97-4.98,11.07c-3.32,3.1-7.6,4.65-12.83,4.65c-1.64,0-3.18-0.13-4.63-0.38c-0.86-0.14-2.65-0.65-5.36-1.52
	c-2.71-0.88-4.43-1.31-5.15-1.31c-0.7,0-1.24,0.21-1.65,0.63c-0.4,0.42-0.7,1.28-0.9,2.59h-1.54v-19.4h1.54
	c0.72,4.06,1.7,7.1,2.92,9.11c1.22,2.02,3.09,3.69,5.61,5.03c2.52,1.33,5.28,2,8.28,2c3.48,0,6.22-0.92,8.24-2.75
	c2.02-1.84,3.02-4,3.02-6.51c0-1.39-0.38-2.79-1.15-4.21c-0.77-1.42-1.95-2.74-3.57-3.96c-1.08-0.83-4.05-2.61-8.88-5.32
	c-4.84-2.71-8.28-4.87-10.32-6.49c-2.04-1.61-3.59-3.39-4.65-5.34c-1.06-1.95-1.59-4.09-1.59-6.42c0-4.06,1.56-7.56,4.67-10.49
	c3.11-2.93,7.08-4.4,11.89-4.4c3,0,6.19,0.74,9.55,2.21c1.56,0.7,2.65,1.04,3.29,1.04c0.72,0,1.31-0.21,1.77-0.65
	c0.46-0.43,0.83-1.3,1.11-2.61H480.5z"/>
<path class="st1" d="M110.1,13.02v88.75c0,25.28-47.15,46.24-53.58,46.24c-6.43,0-53.58-20.96-53.58-46.24V13.02L56.53,1
	L110.1,13.02z M104.61,101.77V17.66L56.53,6.88L8.44,17.66v84.11c0,19.76,40.54,39.66,48.09,40.49
	C64.07,141.43,104.61,121.53,104.61,101.77"/>
<path class="st1" d="M56.52,139.74l-0.19-0.03c-7.59-1.31-45.63-20.41-45.63-38.11V19.55L56.52,9.27l0.25,0.05l45.57,10.22v82.05
	c0,17.7-38.04,36.8-45.63,38.11L56.52,139.74z M12.36,20.7v81.34c0,16.23,36.58,34.68,44.16,36.21
	c7.58-1.53,44.16-19.98,44.16-36.21V20.7l-44.16-9.9L12.36,20.7z"/>
<polygon class="st1" points="98.02,71.19 56.53,71.19 56.53,13.93 98.02,23.24 "/>
<path class="st1" d="M56.53,71.19v64.08c-8.67-2.02-41.49-19.94-41.49-33.5V71.19H56.53z"/>
<path class="st2" d="M89.37,40.41v-1.53l-0.22-0.09c-0.08-0.03-1.87-0.73-4.26-0.73c-2.56,0-4.77,0.78-6.56,2.32
	c-1.8-1.54-4-2.32-6.56-2.32c-2.39,0-4.18,0.69-4.26,0.73l-0.22,0.09v1.41c-0.73,0.14-1.18,0.38-1.18,0.77v14.55h10.72
	c0.37,0.33,0.92,0.54,1.52,0.54c0.6,0,1.15-0.21,1.52-0.54h10.45V41.07C90.33,40.75,89.96,40.54,89.37,40.41 M78.22,54.48
	c-0.89-0.37-3.96-1.53-7.03-1.53c-1.21,0-2.29,0.18-3.2,0.55V39.37c0.54-0.18,1.99-0.6,3.78-0.6c2.36,0,4.38,0.71,6.04,2.1v8.44
	l0.41-0.45V54.48z M88.68,53.5c-0.98-0.39-2.11-0.59-3.36-0.59c-3.07,0-5.99,1.18-6.86,1.56v-5.62l0.41,0.45v-8.44
	c1.65-1.39,3.68-2.1,6.04-2.1c1.79,0,3.25,0.42,3.78,0.6V53.5z"/>
<path class="st1" d="M35.02,106.96c-3.6-1.63-10.15-6.01-11.89-12.11c-0.62-2.18-0.24-4.41,1.04-6.11c1.13-1.5,2.81-2.36,4.61-2.36
	c1.5,0,3.75,0.59,5.99,3.38c1.73-2.32,3.88-3.6,6.06-3.6c1.76,0,3.42,0.83,4.56,2.29c1.29,1.64,1.72,3.82,1.19,5.98
	c-1.51,6.16-7.91,10.78-11.44,12.53l-0.06,0.03L35.02,106.96z"/>
<path class="st2" d="M40.83,86.29c-1.97,0-4.16,1.07-6.06,3.68c-1.93-2.46-4.07-3.47-5.99-3.47c-3.81,0-6.76,3.94-5.52,8.3
	c1.72,6.05,8.33,10.45,11.81,12.03c3.42-1.7,9.87-6.34,11.37-12.45C47.51,90.06,44.54,86.29,40.83,86.29"/>
<path class="st2" d="M45.5,88.36c-1.16-1.48-2.86-2.34-4.67-2.34c-2.18,0-4.33,1.24-6.07,3.51c-2.24-2.72-4.48-3.3-5.98-3.3
	c-1.84,0-3.56,0.88-4.72,2.41c-1.31,1.73-1.69,4-1.06,6.23c0.78,2.73,2.57,5.36,5.33,7.82c1.97,1.75,4.45,3.39,6.64,4.38l0.12,0.05
	l0.11-0.06c2.15-1.07,4.57-2.8,6.47-4.62c2.67-2.56,4.36-5.25,5.04-8C47.25,92.25,46.81,90.03,45.5,88.36 M46.45,94.39
	c-1.5,6.11-7.95,10.75-11.37,12.45c-3.48-1.58-10.09-5.98-11.81-12.03c-1.24-4.36,1.71-8.3,5.52-8.3c1.92,0,4.06,1,5.99,3.47
	c1.9-2.62,4.09-3.68,6.06-3.68C44.54,86.29,47.51,90.06,46.45,94.39"/>
<path class="st1" d="M35.84,103.41c-0.16,0-0.3-0.12-0.33-0.28l-1.2-7.69l-0.6,5.08c-0.02,0.16-0.14,0.28-0.3,0.29
	c-0.15,0.02-0.3-0.08-0.35-0.22l-1.13-3.31l0,0.01l-0.33,0.88c-0.05,0.13-0.17,0.21-0.31,0.21l-7.4,0.03l0-0.67l7.17-0.03l0.59-1.54
	c0.05-0.13,0.17-0.22,0.31-0.22h0.01c0.14,0,0.27,0.09,0.31,0.23l0.95,2.8l0.72-6.03c0.02-0.17,0.16-0.29,0.33-0.29
	c0.17,0,0.31,0.12,0.34,0.28l1.23,7.84l0.7-5.03c0.02-0.16,0.15-0.28,0.31-0.29c0.16-0.01,0.3,0.1,0.34,0.26l0.57,2.36l0.16-0.27
	c0.06-0.1,0.17-0.16,0.28-0.16l7.71-0.1l0.01,0.67l-7.53,0.09l-0.48,0.81c-0.07,0.12-0.2,0.18-0.34,0.16
	c-0.13-0.02-0.24-0.12-0.27-0.25l-0.34-1.44l-0.76,5.52C36.15,103.28,36.01,103.41,35.84,103.41L35.84,103.41z"/>
<path class="st3" d="M78.95,107.54H77.5c-0.06-0.01-0.12-0.03-0.18-0.04c-0.53-0.08-1.06-0.13-1.58-0.25
	c-4.33-1.05-7.49-4.39-8.3-8.76c-0.08-0.41-0.12-0.82-0.17-1.22v-1.37c0.03-0.2,0.06-0.39,0.08-0.59c0.22-1.98,0.95-3.76,2.16-5.34
	c1.74-2.28,4.04-3.67,6.86-4.19c0.38-0.07,0.76-0.11,1.14-0.16h1.46c0.06,0.01,0.11,0.03,0.16,0.04c0.7,0.13,1.42,0.17,2.1,0.39
	c4.27,1.34,6.87,4.23,7.8,8.61c0.09,0.42,0.12,0.86,0.18,1.29v1.28c-0.01,0.09-0.03,0.18-0.04,0.27c-0.09,1.14-0.35,2.24-0.8,3.29
	c-0.9,2.12-2.31,3.82-4.26,5.06c-1.3,0.83-2.71,1.36-4.23,1.58C79.56,107.46,79.25,107.5,78.95,107.54 M77.75,96.47v-3.49
	c-1.56-0.04-3.07-0.27-4.56-0.71c-0.36,1.4-0.53,2.79-0.54,4.21H77.75z M78.69,96.47h5.06c-0.02-1.42-0.18-2.81-0.55-4.19
	c-1.48,0.45-2.99,0.66-4.51,0.7V96.47z M88.28,96.48c-0.04-2.09-0.65-3.97-1.79-5.62c-0.76,0.36-1.49,0.71-2.22,1.05
	c-0.16,0.07-0.19,0.13-0.15,0.3c0.34,1.34,0.52,2.7,0.54,4.08c0,0.06,0.01,0.12,0.02,0.18H88.28z M71.71,96.47
	c0.01-0.03,0.03-0.05,0.03-0.07c0.01-0.06,0.01-0.11,0.01-0.17c0.01-1.39,0.2-2.76,0.55-4.1c0.04-0.14-0.02-0.18-0.13-0.23
	c-0.69-0.34-1.37-0.69-2.06-1.04c-0.04-0.02-0.07-0.04-0.12-0.06c-1.18,1.71-1.79,3.59-1.82,5.66H71.71z M73.45,101.74
	c0.04,0.12,0.07,0.23,0.11,0.33c0.49,1.32,1.13,2.55,2.19,3.52c0.57,0.52,1.22,0.88,2,1v-5.52
	C76.29,101.12,74.87,101.32,73.45,101.74 M73.42,91.4c1.45,0.43,2.87,0.63,4.33,0.67v-5.52c-0.67,0.1-1.23,0.38-1.74,0.78
	c-0.92,0.73-1.55,1.68-2.03,2.74C73.78,90.5,73.61,90.95,73.42,91.4 M82.98,91.41c-0.19-0.46-0.36-0.91-0.56-1.34
	c-0.48-1.04-1.1-1.98-2-2.71c-0.5-0.41-1.07-0.7-1.72-0.8v5.51C80.15,92.03,81.56,91.84,82.98,91.41 M78.69,101.08v5.56
	c0.37-0.14,0.73-0.25,1.05-0.41c0.74-0.37,1.29-0.95,1.78-1.61c0.64-0.88,1.09-1.85,1.44-2.89
	C81.56,101.32,80.15,101.13,78.69,101.08 M73.19,100.89c1.5-0.45,3.01-0.67,4.56-0.72V97.4h-5.08
	C72.72,98.58,72.88,99.72,73.19,100.89 M78.69,100.17c1.55,0.05,3.04,0.27,4.52,0.7c0.3-1.15,0.47-2.3,0.51-3.47h-5.03V100.17z
	 M84.65,97.4c-0.01,0.12-0.03,0.23-0.04,0.35c-0.05,1.08-0.23,2.15-0.5,3.2c-0.04,0.17,0,0.23,0.15,0.3
	c0.69,0.33,1.37,0.69,2.06,1.03c0.04,0.02,0.08,0.04,0.13,0.07c1.04-1.5,1.64-3.13,1.79-4.94H84.65z M69.96,102.3
	c0.77-0.37,1.52-0.72,2.27-1.09c0.04-0.02,0.07-0.14,0.06-0.2c-0.12-0.63-0.26-1.25-0.36-1.88c-0.09-0.57-0.13-1.14-0.19-1.72H68.2
	C68.36,99.21,68.96,100.86,69.96,102.3 M81.42,87.04c0.92,1.15,1,0.84,2.4,4.1c0.73-0.27,1.43-0.6,2.09-1.04
	C84.69,88.68,83.22,87.67,81.42,87.04 M85.94,103.01c-0.72-0.35-1.41-0.69-2.1-1.04c-1.06,2.53-1.05,2.46-2.42,4.13
	C83.22,105.49,84.69,104.47,85.94,103.01 M74.96,87.09c-1.3,0.29-3.82,2.02-4.42,3.07c0.68,0.33,1.35,0.67,2.04,1.01
	C73.12,89.62,73.83,88.24,74.96,87.09 M70.51,103.01c1.24,1.45,2.69,2.46,4.43,3.05c-1.12-1.15-1.82-2.54-2.36-4.08
	C71.89,102.33,71.21,102.66,70.51,103.01"/>
<path class="st3" d="M43.78,50.71c-0.88-1.14-2.15-1.48-3.4-1.86c-0.94-0.28-1.88-0.23-2.82-0.02c-1.03,0.23-1.88,0.72-2.43,1.71
	c-0.16-0.2-0.29-0.38-0.44-0.55c-0.77-0.85-1.77-1.2-2.87-1.31c-1.55-0.16-2.96,0.36-4.29,1.07c-0.39,0.21-0.71,0.56-1.06,0.84
	c0-1.51-0.01-3.07,0.01-4.64c0-0.46,0.3-0.78,0.64-1.05c0.78-0.62,1.7-0.92,2.64-1.17c1.89-0.5,3.81-0.63,5.75-0.6
	c2.07,0.03,4.12,0.22,6.06,0.96c0.64,0.24,1.23,0.64,1.78,1.05c0.23,0.17,0.4,0.56,0.41,0.85C43.8,47.57,43.78,49.12,43.78,50.71"/>
<path class="st3" d="M35.17,51.38c0.14-0.2,0.31-0.5,0.54-0.75c0.58-0.63,1.35-0.91,2.17-1.05c1.74-0.3,3.28,0.27,4.74,1.13
	c0.2,0.12,0.37,0.29,0.52,0.46c0.45,0.5,0.5,1.12,0,1.57c-0.46,0.41-1,0.77-1.56,1.02c-1.23,0.55-2.54,0.81-3.88,0.91
	c-1.07,0.09-2.15,0.18-3.22,0.15c-2.05-0.06-4.08-0.29-5.99-1.12c-0.37-0.16-0.74-0.37-1.06-0.62c-0.91-0.71-0.92-1.51,0-2.23
	c0.91-0.72,2-1.04,3.12-1.27c1.14-0.24,2.25-0.05,3.23,0.55C34.29,50.44,34.7,50.94,35.17,51.38"/>
<path class="st3" d="M50.44,45.2c-1.96,0.7-3.92,1.4-5.96,2.13c0-0.5-0.02-0.92,0-1.34c0.05-0.79-0.3-1.36-0.93-1.79
	c-1.05-0.71-2.24-1.06-3.46-1.31c-1.83-0.39-3.69-0.55-5.57-0.49c-2.24,0.07-4.46,0.29-6.56,1.14c-0.52,0.21-1.02,0.51-1.49,0.84
	c-0.5,0.34-0.74,0.86-0.72,1.48c0.01,0.46,0,0.92,0,1.38c-0.04,0.02-0.09,0.04-0.13,0.06c-0.08-0.12-0.24-0.23-0.24-0.35
	c-0.02-1.26-0.02-2.51,0.01-3.77c0-0.12,0.21-0.3,0.36-0.35c1.93-0.72,3.86-1.42,5.79-2.12c0.93-0.34,1.87-0.68,2.8-1.02
	c0.52-0.19,1.04-0.19,1.56,0c4.71,1.72,9.42,3.43,14.13,5.15c0.13,0.05,0.26,0.12,0.39,0.18C50.43,45.08,50.44,45.14,50.44,45.2"/>
<path class="st3" d="M25.46,42.36c-0.15-0.56-0.04-0.81,0.43-0.98c2.82-1.03,5.63-2.05,8.45-3.07c0.53-0.19,1.06-0.19,1.6,0.01
	c4.66,1.7,9.32,3.4,13.98,5.1c0.59,0.21,0.61,0.26,0.47,1c-0.63-0.22-1.25-0.44-1.87-0.67c-4.19-1.53-8.37-3.05-12.56-4.58
	c-0.56-0.21-1.11-0.2-1.67,0c-2.82,1.03-5.63,2.05-8.45,3.08C25.71,42.29,25.59,42.32,25.46,42.36"/>
<path class="st3" d="M19.19,45.01c1.4-0.51,2.81-1.03,4.26-1.56v3.26c-1.44-0.51-2.84-1.01-4.25-1.52
	C19.2,45.13,19.2,45.07,19.19,45.01"/>
<path class="st3" d="M27.6,40.32c-0.71,0.25-1.3,0.48-1.91,0.66c-0.67,0.19-0.92,0.47-0.92,1.19c0,1.96,0,3.93,0,5.89
	c0,0.23-0.01,0.44-0.31,0.39c-0.12-0.02-0.22-0.17-0.32-0.27c-0.01-0.01-0.01-0.05-0.01-0.08c0.01-2.13,0-4.25,0.06-6.38
	c0.01-0.61,0.4-1.07,1.01-1.26C25.95,40.24,26.71,40.15,27.6,40.32"/>
<path class="st3" d="M25.38,56.08h-1.83c0.11-0.44,0.26-0.83,0.28-1.22c0.04-0.7,0.01-1.41,0.01-2.12c0-0.58,0.04-0.62,0.6-0.62
	c0.54,0,0.63,0.05,0.59,0.62C24.94,53.85,24.9,54.94,25.38,56.08"/>
<path class="st3" d="M19.2,44.45c-0.06-0.82-0.06-0.82,0.64-1.08c1.2-0.44,2.4-0.87,3.61-1.31c0.14,0.73,0.09,0.81-0.54,1.04
	C21.69,43.55,20.46,43.99,19.2,44.45"/>
<path class="st3" d="M24.76,49.66c0,0.2,0.03,0.42-0.01,0.61c-0.03,0.12-0.18,0.28-0.29,0.28c-0.1,0-0.3-0.15-0.31-0.25
	c-0.04-0.4-0.03-0.82,0-1.22c0.01-0.09,0.21-0.21,0.33-0.22c0.09-0.01,0.24,0.14,0.26,0.24C24.79,49.27,24.76,49.47,24.76,49.66"/>
<path class="st3" d="M24.46,50.98c0.36-0.11,0.56,0.03,0.57,0.4c0.01,0.38-0.25,0.44-0.55,0.43c-0.3-0.01-0.64,0.04-0.65-0.41
	C23.83,50.94,24.11,50.89,24.46,50.98"/>
</svg>
