<?xml version="1.0" encoding="utf-8"?>
<!-- Generator: Adobe Illustrator 24.2.1, SVG Export Plug-In . SVG Version: 6.00 Build 0)  -->
<svg version="1.1" id="Layer_1" xmlns="http://www.w3.org/2000/svg" xmlns:xlink="http://www.w3.org/1999/xlink" x="0px" y="0px"
	 viewBox="0 0 488 149" style="enable-background:new 0 0 488 149;" xml:space="preserve">
<style type="text/css">
	.st0{fill:#404041;}
	.st1{fill:#2B599F;}
	.st2{fill:#FFFFFF;}
	.st3{fill-rule:evenodd;clip-rule:evenodd;fill:#2B599F;}
</style>
<path class="st0" d="M182.24,54.48l1.4,0.3l-4.9,15.56h-44.39v-1.56h2.16c2.42,0,4.16-0.79,5.2-2.37c0.59-0.9,0.89-2.99,0.89-6.26
	V23.15c0-3.58-0.4-5.82-1.18-6.72c-1.1-1.24-2.73-1.86-4.9-1.86h-2.16V13h25.96v1.56c-3.04-0.03-5.18,0.25-6.41,0.85
	c-1.23,0.59-2.06,1.34-2.52,2.24c-0.45,0.9-0.68,3.06-0.68,6.47v36.02c0,2.34,0.23,3.95,0.68,4.82c0.34,0.59,0.86,1.03,1.56,1.31
	c0.7,0.28,2.9,0.42,6.6,0.42h4.19c4.4,0,7.48-0.32,9.26-0.97c1.78-0.65,3.4-1.8,4.86-3.45C179.31,60.63,180.78,58.03,182.24,54.48"
	/>
<path class="st0" d="M218.1,13h20v1.56h-1.1c-0.73,0-1.8,0.32-3.21,0.97c-1.41,0.65-2.69,1.58-3.85,2.79
	c-1.16,1.21-2.58,3.19-4.27,5.92l-13.82,21.77V60.4c0,3.52,0.39,5.72,1.18,6.6c1.07,1.18,2.76,1.78,5.07,1.78h1.86v1.56H195.6v-1.56
	h2.03c2.42,0,4.14-0.73,5.16-2.2c0.62-0.9,0.93-2.96,0.93-6.17V46.82l-15.73-24.01c-1.86-2.82-3.12-4.58-3.78-5.28
	c-0.66-0.7-2.04-1.55-4.12-2.54c-0.56-0.28-1.38-0.42-2.45-0.42V13h24.52v1.56h-1.27c-1.33,0-2.54,0.31-3.66,0.93
	c-1.11,0.62-1.67,1.55-1.67,2.79c0,1.01,0.86,2.85,2.58,5.5l11.96,18.48l11.25-17.67c1.69-2.65,2.54-4.62,2.54-5.92
	c0-0.79-0.2-1.49-0.61-2.11c-0.41-0.62-0.99-1.11-1.75-1.46c-0.76-0.35-1.9-0.53-3.42-0.53V13z"/>
<path class="st0" d="M291.49,11.69l1.31,19.49h-1.31c-1.75-5.83-4.24-10.03-7.48-12.6c-3.24-2.56-7.13-3.85-11.67-3.85
	c-3.8,0-7.24,0.97-10.32,2.9c-3.07,1.93-5.49,5.01-7.25,9.24c-1.76,4.23-2.64,9.48-2.64,15.77c0,5.19,0.83,9.68,2.49,13.49
	c1.66,3.81,4.16,6.72,7.5,8.75c3.34,2.03,7.15,3.04,11.44,3.04c3.72,0,7-0.8,9.85-2.39c2.85-1.59,5.98-4.76,9.39-9.49l1.31,0.85
	c-2.87,5.1-6.23,8.84-10.06,11.2c-3.83,2.37-8.39,3.55-13.66,3.55c-9.5,0-16.85-3.52-22.07-10.57c-3.89-5.24-5.83-11.42-5.83-18.52
	c0-5.72,1.28-10.98,3.85-15.77c2.56-4.79,6.09-8.5,10.59-11.14c4.49-2.63,9.41-3.95,14.73-3.95c4.14,0,8.23,1.01,12.26,3.04
	c1.18,0.62,2.03,0.93,2.54,0.93c0.76,0,1.42-0.27,1.99-0.8c0.73-0.76,1.25-1.82,1.56-3.17H291.49z"/>
<path class="st0" d="M315.21,16.13v22.66h12.6c3.27,0,5.45-0.49,6.55-1.48c1.47-1.3,2.28-3.58,2.45-6.85h1.56v19.96h-1.56
	c-0.4-2.79-0.79-4.58-1.18-5.37c-0.51-0.99-1.34-1.76-2.49-2.33c-1.16-0.56-2.93-0.85-5.33-0.85h-12.6v18.9
	c0,2.54,0.11,4.08,0.34,4.63c0.23,0.55,0.62,0.99,1.18,1.31c0.56,0.32,1.63,0.49,3.21,0.49h9.72c3.24,0,5.59-0.23,7.06-0.68
	c1.47-0.45,2.88-1.34,4.23-2.66c1.75-1.75,3.54-4.38,5.37-7.91h1.69l-4.95,14.37h-44.18v-1.56h2.03c1.35,0,2.64-0.32,3.85-0.97
	c0.9-0.45,1.51-1.13,1.84-2.03c0.32-0.9,0.49-2.75,0.49-5.54V22.98c0-3.64-0.37-5.88-1.1-6.72c-1.01-1.13-2.71-1.69-5.07-1.69h-2.03
	V13h44.18l0.63,12.56h-1.65c-0.59-3.02-1.25-5.09-1.97-6.21c-0.72-1.13-1.78-1.99-3.19-2.58c-1.13-0.42-3.11-0.63-5.96-0.63H315.21z
	"/>
<path class="st0" d="M391.31,14.57V13h20.29v1.56h-2.16c-2.26,0-3.99,0.94-5.2,2.83c-0.59,0.87-0.89,2.9-0.89,6.09v23.25
	c0,5.75-0.57,10.21-1.71,13.38c-1.14,3.17-3.38,5.89-6.72,8.16c-3.34,2.27-7.88,3.4-13.63,3.4c-6.26,0-11.01-1.09-14.25-3.26
	c-3.24-2.17-5.54-5.09-6.89-8.75c-0.9-2.51-1.35-7.21-1.35-14.12V23.15c0-3.52-0.49-5.83-1.46-6.93c-0.97-1.1-2.54-1.65-4.71-1.65
	h-2.16V13h24.77v1.56h-2.2c-2.37,0-4.06,0.75-5.07,2.24c-0.7,1.01-1.06,3.13-1.06,6.34v24.99c0,2.23,0.2,4.78,0.61,7.65
	c0.41,2.88,1.15,5.12,2.22,6.72c1.07,1.61,2.61,2.93,4.63,3.97c2.01,1.04,4.49,1.56,7.42,1.56c3.75,0,7.1-0.82,10.06-2.45
	c2.96-1.63,4.98-3.73,6.07-6.28c1.08-2.55,1.63-6.87,1.63-12.96V23.15c0-3.58-0.39-5.82-1.18-6.72c-1.1-1.24-2.73-1.86-4.9-1.86
	H391.31z"/>
<path class="st0" d="M447.96,70.33l-22.15-48.24v38.3c0,3.52,0.38,5.72,1.14,6.6c1.04,1.18,2.69,1.78,4.95,1.78h2.03v1.56h-19.96
	v-1.56H416c2.42,0,4.14-0.73,5.16-2.2c0.62-0.9,0.93-2.96,0.93-6.17V22.94c0-2.54-0.28-4.37-0.85-5.5c-0.39-0.82-1.12-1.5-2.18-2.05
	c-1.06-0.55-2.76-0.82-5.09-0.82V13h16.23l20.8,44.86L471.47,13h16.23v1.56h-1.99c-2.45,0-4.19,0.73-5.2,2.2
	c-0.62,0.9-0.93,2.96-0.93,6.17V60.4c0,3.52,0.39,5.72,1.18,6.6c1.04,1.18,2.69,1.78,4.95,1.78h1.99v1.56h-24.35v-1.56h2.03
	c2.45,0,4.17-0.73,5.16-2.2c0.62-0.9,0.93-2.96,0.93-6.17v-38.3l-22.11,48.24H447.96z"/>
<path class="st1" d="M184.74,77.33l1.31,19.49h-1.31c-1.75-5.83-4.24-10.03-7.48-12.6c-3.24-2.56-7.13-3.85-11.67-3.85
	c-3.8,0-7.24,0.97-10.32,2.9c-3.07,1.93-5.49,5.01-7.25,9.24c-1.76,4.23-2.64,9.48-2.64,15.77c0,5.19,0.83,9.68,2.49,13.49
	c1.66,3.81,4.16,6.72,7.5,8.75c3.34,2.03,7.15,3.04,11.44,3.04c3.72,0,7-0.8,9.85-2.39c2.85-1.59,5.98-4.76,9.39-9.49l1.31,0.85
	c-2.87,5.1-6.23,8.84-10.06,11.2c-3.83,2.37-8.39,3.55-13.66,3.55c-9.5,0-16.85-3.52-22.07-10.57c-3.89-5.24-5.83-11.42-5.83-18.52
	c0-5.72,1.28-10.98,3.85-15.77c2.56-4.79,6.09-8.5,10.59-11.14c4.5-2.63,9.41-3.95,14.73-3.95c4.14,0,8.23,1.01,12.26,3.04
	c1.18,0.62,2.03,0.93,2.54,0.93c0.76,0,1.42-0.27,1.99-0.8c0.73-0.76,1.25-1.82,1.56-3.17H184.74z"/>
<path class="st1" d="M230.67,116.77h-22.2l-3.89,9.05c-0.96,2.23-1.44,3.89-1.44,4.99c0,0.87,0.42,1.64,1.25,2.3
	c0.83,0.66,2.63,1.09,5.39,1.29v1.56h-18.05v-1.56c2.4-0.42,3.95-0.97,4.65-1.65c1.44-1.35,3.03-4.1,4.78-8.24l20.17-47.18h1.48
	l19.96,47.69c1.61,3.83,3.07,6.32,4.38,7.46c1.31,1.14,3.13,1.78,5.47,1.92v1.56h-22.62v-1.56c2.28-0.11,3.83-0.49,4.63-1.14
	c0.8-0.65,1.2-1.44,1.2-2.37c0-1.24-0.56-3.2-1.69-5.88L230.67,116.77z M229.49,113.64l-9.72-23.17l-9.98,23.17H229.49z"/>
<path class="st1" d="M289.71,135.97l-22.15-48.24v38.3c0,3.52,0.38,5.72,1.14,6.6c1.04,1.18,2.69,1.78,4.95,1.78h2.03v1.56h-19.96
	v-1.56h2.03c2.42,0,4.14-0.73,5.16-2.2c0.62-0.9,0.93-2.96,0.93-6.17V88.57c0-2.54-0.28-4.37-0.85-5.5c-0.4-0.82-1.12-1.5-2.18-2.05
	c-1.06-0.55-2.76-0.82-5.09-0.82v-1.56h16.23l20.8,44.86l20.46-44.86h16.23v1.56h-1.99c-2.45,0-4.19,0.73-5.2,2.2
	c-0.62,0.9-0.93,2.96-0.93,6.17v37.46c0,3.52,0.39,5.72,1.18,6.6c1.04,1.18,2.69,1.78,4.95,1.78h1.99v1.56h-24.35v-1.56h2.03
	c2.45,0,4.17-0.73,5.16-2.2c0.62-0.9,0.93-2.96,0.93-6.17v-38.3l-22.11,48.24H289.71z"/>
<path class="st1" d="M349.71,109.12v16.7c0,3.61,0.39,5.85,1.18,6.72c1.07,1.24,2.69,1.86,4.86,1.86h2.2v1.56h-24.56v-1.56h2.16
	c2.42,0,4.16-0.79,5.2-2.37c0.56-0.87,0.85-2.94,0.85-6.21V88.79c0-3.61-0.38-5.85-1.14-6.72c-1.1-1.24-2.73-1.86-4.9-1.86h-2.16
	v-1.56h21.01c5.13,0,9.17,0.53,12.13,1.59c2.96,1.06,5.45,2.84,7.48,5.35c2.03,2.51,3.04,5.48,3.04,8.92
	c0,4.68-1.54,8.48-4.63,11.41c-3.09,2.93-7.45,4.4-13.09,4.4c-1.38,0-2.88-0.1-4.48-0.3C353.27,109.81,351.55,109.52,349.71,109.12
	 M349.71,106.71c1.49,0.28,2.82,0.49,3.97,0.63c1.16,0.14,2.14,0.21,2.96,0.21c2.93,0,5.46-1.13,7.59-3.4
	c2.13-2.27,3.19-5.21,3.19-8.81c0-2.48-0.51-4.78-1.52-6.91c-1.01-2.13-2.45-3.72-4.31-4.78c-1.86-1.06-3.97-1.58-6.34-1.58
	c-1.44,0-3.28,0.27-5.54,0.8V106.71z"/>
<path class="st1" d="M422.11,80.2v-1.56h20.29v1.56h-2.16c-2.25,0-3.99,0.94-5.2,2.83c-0.59,0.87-0.89,2.9-0.89,6.09v23.25
	c0,5.75-0.57,10.21-1.71,13.38c-1.14,3.17-3.38,5.89-6.72,8.16c-3.34,2.27-7.88,3.4-13.63,3.4c-6.26,0-11.01-1.09-14.25-3.26
	c-3.24-2.17-5.54-5.09-6.89-8.75c-0.9-2.51-1.35-7.21-1.35-14.12V88.79c0-3.52-0.49-5.83-1.46-6.93c-0.97-1.1-2.54-1.65-4.71-1.65
	h-2.16v-1.56h24.77v1.56h-2.2c-2.37,0-4.06,0.75-5.07,2.24c-0.7,1.01-1.06,3.13-1.06,6.34v24.99c0,2.23,0.2,4.78,0.61,7.65
	c0.41,2.87,1.15,5.12,2.22,6.72c1.07,1.61,2.61,2.93,4.63,3.97c2.01,1.04,4.49,1.56,7.42,1.56c3.75,0,7.1-0.82,10.06-2.45
	c2.96-1.63,4.98-3.73,6.07-6.28c1.08-2.55,1.63-6.87,1.63-12.96V88.79c0-3.58-0.4-5.82-1.18-6.72c-1.1-1.24-2.73-1.86-4.9-1.86
	H422.11z"/>
<path class="st1" d="M483.73,77.33v19.83h-1.56c-0.51-3.8-1.42-6.83-2.73-9.09c-1.31-2.25-3.18-4.04-5.6-5.37
	c-2.42-1.32-4.93-1.99-7.53-1.99c-2.93,0-5.36,0.89-7.27,2.68c-1.92,1.79-2.88,3.83-2.88,6.11c0,1.75,0.61,3.34,1.82,4.78
	c1.75,2.11,5.9,4.93,12.47,8.46c5.35,2.87,9.01,5.08,10.97,6.62c1.96,1.54,3.47,3.35,4.52,5.43c1.06,2.09,1.59,4.27,1.59,6.55
	c0,4.34-1.68,8.08-5.05,11.22c-3.37,3.14-7.7,4.71-13,4.71c-1.66,0-3.23-0.13-4.69-0.38c-0.87-0.14-2.68-0.66-5.43-1.54
	c-2.75-0.89-4.49-1.33-5.22-1.33c-0.7,0-1.26,0.21-1.67,0.63c-0.41,0.42-0.71,1.3-0.91,2.62h-1.56v-19.66h1.56
	c0.73,4.12,1.72,7.19,2.96,9.24c1.24,2.04,3.14,3.74,5.69,5.09c2.55,1.35,5.35,2.03,8.39,2.03c3.52,0,6.31-0.93,8.35-2.79
	c2.04-1.86,3.07-4.06,3.07-6.6c0-1.41-0.39-2.83-1.16-4.27c-0.78-1.44-1.98-2.78-3.61-4.02c-1.1-0.85-4.1-2.64-9.01-5.39
	c-4.9-2.75-8.39-4.94-10.46-6.57c-2.07-1.63-3.64-3.44-4.71-5.41c-1.07-1.97-1.61-4.14-1.61-6.51c0-4.11,1.58-7.66,4.74-10.63
	c3.16-2.97,7.17-4.46,12.05-4.46c3.04,0,6.27,0.75,9.68,2.24c1.58,0.7,2.69,1.06,3.34,1.06c0.73,0,1.33-0.22,1.8-0.66
	c0.47-0.44,0.84-1.32,1.12-2.64H483.73z"/>
<path class="st1" d="M108.28,12.18v89.96c0,25.63-47.79,46.87-54.31,46.87c-6.51,0-54.31-21.24-54.31-46.87V12.18L53.98,0
	L108.28,12.18z M102.72,102.14V16.89L53.98,5.96L5.24,16.89v85.25c0,20.03,41.09,40.2,48.74,41.04
	C61.63,142.34,102.72,122.17,102.72,102.14"/>
<path class="st1" d="M53.98,140.63l-0.2-0.03c-7.69-1.33-46.25-20.69-46.25-38.63V18.8L53.98,8.38l0.25,0.06l46.19,10.36v83.16
	c0,17.94-38.56,37.3-46.25,38.63L53.98,140.63z M9.22,19.96v82.44c0,16.45,37.07,35.16,44.76,36.7c7.68-1.55,44.76-20.25,44.76-36.7
	V19.96L53.98,9.93L9.22,19.96z"/>
<polygon class="st1" points="96.04,71.15 53.98,71.15 53.98,13.1 96.04,22.54 "/>
<path class="st1" d="M53.98,71.15v64.95c-8.78-2.05-42.06-20.21-42.06-33.96V71.15H53.98z"/>
<path class="st2" d="M87.27,39.95V38.4l-0.22-0.09c-0.08-0.03-1.89-0.73-4.31-0.73c-2.59,0-4.83,0.79-6.65,2.35
	c-1.82-1.56-4.06-2.35-6.65-2.35c-2.42,0-4.24,0.7-4.31,0.73L64.9,38.4v1.43c-0.74,0.14-1.19,0.38-1.19,0.78v14.75h10.86
	c0.38,0.34,0.93,0.55,1.54,0.55c0.61,0,1.16-0.21,1.54-0.55h10.59V40.62C88.24,40.29,87.87,40.08,87.27,39.95 M75.97,54.21
	c-0.9-0.37-4.01-1.55-7.12-1.55c-1.23,0-2.32,0.19-3.25,0.56V38.89c0.54-0.18,2.02-0.6,3.83-0.6c2.39,0,4.44,0.72,6.12,2.13v8.55
	l0.42-0.46V54.21z M86.57,53.22c-1-0.4-2.14-0.6-3.41-0.6c-3.11,0-6.07,1.19-6.96,1.58v-5.69l0.41,0.46v-8.55
	c1.68-1.41,3.73-2.13,6.12-2.13c1.81,0,3.29,0.43,3.83,0.6V53.22z"/>
<path class="st2" d="M32.18,107.4c-3.65-1.65-10.29-6.09-12.05-12.28c-0.63-2.21-0.25-4.47,1.05-6.19c1.15-1.52,2.85-2.39,4.67-2.39
	c1.52,0,3.8,0.6,6.07,3.43c1.76-2.35,3.93-3.65,6.15-3.65c1.78,0,3.47,0.84,4.62,2.32c1.3,1.66,1.74,3.87,1.2,6.06
	c-1.54,6.24-8.01,10.92-11.6,12.7l-0.06,0.03L32.18,107.4z"/>
<path class="st2" d="M38.07,86.45c-2,0-4.21,1.08-6.14,3.73c-1.95-2.5-4.12-3.51-6.07-3.51c-3.86,0-6.85,3.99-5.6,8.41
	c1.74,6.13,8.44,10.6,11.98,12.19c3.47-1.72,10.01-6.43,11.53-12.62C44.84,90.28,41.83,86.45,38.07,86.45"/>
<path class="st2" d="M42.8,88.55c-1.18-1.51-2.9-2.37-4.73-2.37c-2.21,0-4.38,1.26-6.15,3.56c-2.27-2.75-4.54-3.34-6.06-3.34
	c-1.86,0-3.61,0.89-4.78,2.45c-1.33,1.76-1.72,4.06-1.08,6.31c0.79,2.77,2.6,5.43,5.4,7.92c1.99,1.78,4.51,3.44,6.73,4.44l0.12,0.05
	l0.12-0.06c2.18-1.08,4.64-2.83,6.56-4.68c2.7-2.59,4.42-5.32,5.11-8.11C44.58,92.49,44.13,90.24,42.8,88.55 M43.76,94.66
	c-1.52,6.19-8.06,10.89-11.53,12.62c-3.53-1.6-10.23-6.06-11.98-12.19c-1.26-4.42,1.74-8.41,5.6-8.41c1.95,0,4.12,1.02,6.07,3.51
	c1.93-2.65,4.14-3.73,6.14-3.73C41.83,86.45,44.84,90.28,43.76,94.66"/>
<path class="st1" d="M33.01,103.8c-0.17,0-0.31-0.12-0.34-0.29l-1.22-7.79l-0.61,5.15c-0.02,0.16-0.14,0.28-0.3,0.3
	c-0.16,0.02-0.31-0.08-0.36-0.23l-1.14-3.36l0,0.01l-0.34,0.89c-0.05,0.13-0.18,0.22-0.32,0.22l-7.5,0.03l0-0.68l7.27-0.03
	l0.59-1.56c0.05-0.13,0.18-0.22,0.32-0.22h0.01c0.14,0,0.27,0.09,0.31,0.23l0.97,2.84l0.73-6.11c0.02-0.17,0.16-0.3,0.33-0.3
	c0.17,0,0.32,0.12,0.34,0.29l1.25,7.95l0.7-5.1c0.02-0.16,0.16-0.28,0.32-0.29c0.16-0.01,0.31,0.1,0.35,0.26l0.57,2.4l0.16-0.27
	c0.06-0.1,0.17-0.16,0.29-0.17l7.82-0.1l0.01,0.68l-7.63,0.09l-0.49,0.82c-0.07,0.12-0.21,0.18-0.34,0.16
	c-0.14-0.02-0.25-0.12-0.28-0.26l-0.35-1.46l-0.77,5.59C33.32,103.68,33.18,103.8,33.01,103.8L33.01,103.8z"/>
<path class="st3" d="M76.71,107.99h-1.48c-0.06-0.01-0.12-0.03-0.19-0.04c-0.53-0.08-1.08-0.13-1.6-0.25
	c-4.38-1.06-7.59-4.45-8.41-8.88c-0.08-0.41-0.12-0.83-0.18-1.24v-1.39c0.03-0.2,0.06-0.4,0.08-0.6c0.23-2.01,0.96-3.81,2.19-5.41
	c1.77-2.31,4.09-3.72,6.95-4.24c0.38-0.07,0.77-0.11,1.15-0.16h1.48c0.06,0.01,0.11,0.03,0.17,0.04c0.71,0.13,1.44,0.18,2.12,0.39
	c4.33,1.36,6.96,4.29,7.91,8.73c0.09,0.43,0.12,0.87,0.18,1.3v1.3c-0.01,0.09-0.03,0.18-0.04,0.27c-0.09,1.15-0.36,2.27-0.81,3.33
	c-0.91,2.15-2.35,3.87-4.32,5.13c-1.31,0.84-2.74,1.38-4.29,1.6C77.32,107.91,77.02,107.95,76.71,107.99 M75.49,96.77v-3.54
	c-1.58-0.04-3.11-0.28-4.62-0.72c-0.37,1.42-0.54,2.82-0.55,4.26H75.49z M76.45,96.77h5.13c-0.02-1.44-0.18-2.85-0.55-4.25
	c-1.5,0.45-3.03,0.67-4.57,0.71V96.77z M86.16,96.77c-0.04-2.12-0.66-4.02-1.82-5.69c-0.77,0.37-1.51,0.72-2.25,1.07
	c-0.16,0.07-0.19,0.14-0.15,0.31c0.35,1.36,0.53,2.74,0.54,4.14c0,0.06,0.01,0.12,0.02,0.19H86.16z M69.37,96.77
	c0.01-0.03,0.03-0.05,0.03-0.07c0.01-0.06,0.01-0.12,0.01-0.17c0.01-1.41,0.2-2.79,0.56-4.16c0.04-0.14-0.03-0.18-0.14-0.24
	c-0.7-0.35-1.39-0.7-2.09-1.05c-0.04-0.02-0.07-0.04-0.12-0.06c-1.2,1.73-1.82,3.63-1.85,5.74H69.37z M71.13,102.11
	c0.04,0.12,0.07,0.23,0.11,0.34c0.5,1.34,1.15,2.59,2.22,3.57c0.58,0.52,1.23,0.89,2.03,1.01v-5.59
	C74.01,101.49,72.57,101.69,71.13,102.11 M71.11,91.63c1.47,0.44,2.91,0.64,4.39,0.68v-5.59c-0.67,0.1-1.25,0.38-1.77,0.79
	c-0.94,0.74-1.57,1.71-2.06,2.77C71.47,90.72,71.3,91.17,71.11,91.63 M80.79,91.64c-0.19-0.47-0.36-0.92-0.56-1.36
	c-0.49-1.05-1.11-2.01-2.03-2.75c-0.51-0.41-1.08-0.71-1.74-0.81v5.58C77.93,92.27,79.36,92.07,80.79,91.64 M76.45,101.44v5.64
	c0.38-0.15,0.74-0.25,1.06-0.42c0.75-0.38,1.31-0.96,1.8-1.63c0.65-0.89,1.11-1.87,1.46-2.93
	C79.36,101.68,77.93,101.49,76.45,101.44 M70.87,101.25c1.52-0.46,3.05-0.68,4.63-0.73v-2.81h-5.15
	C70.4,98.9,70.56,100.07,70.87,101.25 M76.45,100.52c1.57,0.05,3.08,0.27,4.58,0.71c0.31-1.17,0.47-2.33,0.52-3.52h-5.1V100.52z
	 M82.49,97.71c-0.01,0.12-0.03,0.24-0.04,0.35c-0.05,1.1-0.23,2.18-0.5,3.24c-0.04,0.17,0,0.23,0.15,0.3
	c0.7,0.34,1.39,0.7,2.09,1.04c0.04,0.02,0.09,0.04,0.13,0.07c1.05-1.52,1.66-3.18,1.81-5.01H82.49z M67.6,102.68
	c0.78-0.37,1.54-0.73,2.3-1.1c0.04-0.02,0.07-0.14,0.06-0.2c-0.12-0.64-0.26-1.27-0.37-1.91c-0.09-0.58-0.13-1.16-0.2-1.75h-3.58
	C65.97,99.55,66.58,101.21,67.6,102.68 M79.21,87.21c0.93,1.17,1.01,0.85,2.44,4.15c0.74-0.27,1.44-0.6,2.11-1.05
	C82.53,88.87,81.04,87.85,79.21,87.21 M83.79,103.4c-0.73-0.36-1.43-0.7-2.13-1.05c-1.07,2.56-1.06,2.5-2.45,4.19
	C81.03,105.91,82.52,104.88,83.79,103.4 M72.66,87.26c-1.32,0.29-3.87,2.05-4.48,3.11c0.69,0.34,1.37,0.68,2.07,1.02
	C70.8,89.83,71.52,88.43,72.66,87.26 M68.15,103.4c1.26,1.47,2.73,2.49,4.49,3.09c-1.13-1.16-1.84-2.57-2.39-4.13
	C69.55,102.71,68.87,103.05,68.15,103.4"/>
<path class="st3" d="M41.06,50.39c-0.89-1.16-2.18-1.5-3.45-1.88c-0.96-0.29-1.91-0.24-2.86-0.02c-1.04,0.24-1.9,0.73-2.46,1.74
	c-0.16-0.2-0.29-0.39-0.44-0.56c-0.78-0.86-1.8-1.21-2.91-1.32c-1.58-0.16-3,0.36-4.35,1.09c-0.4,0.21-0.72,0.57-1.07,0.85
	c0-1.53-0.01-3.11,0.01-4.7c0-0.46,0.31-0.79,0.65-1.06c0.79-0.62,1.72-0.93,2.67-1.19c1.91-0.51,3.86-0.64,5.83-0.61
	c2.1,0.03,4.17,0.22,6.14,0.98c0.64,0.25,1.24,0.65,1.8,1.07c0.23,0.17,0.41,0.56,0.42,0.86C41.08,47.2,41.06,48.78,41.06,50.39"/>
<path class="st3" d="M32.34,51.06c0.15-0.21,0.32-0.51,0.55-0.76c0.59-0.64,1.37-0.92,2.2-1.06c1.76-0.31,3.32,0.28,4.8,1.15
	c0.2,0.12,0.37,0.29,0.53,0.46c0.46,0.51,0.5,1.14,0,1.59c-0.46,0.42-1.01,0.78-1.58,1.03c-1.24,0.56-2.58,0.82-3.93,0.92
	c-1.09,0.09-2.18,0.18-3.27,0.15c-2.08-0.06-4.14-0.29-6.07-1.14c-0.38-0.17-0.75-0.37-1.07-0.63c-0.93-0.72-0.93-1.53,0-2.26
	c0.92-0.73,2.03-1.05,3.16-1.29c1.15-0.24,2.28-0.05,3.27,0.55C31.45,50.11,31.85,50.62,32.34,51.06"/>
<path class="st3" d="M47.81,44.8c-1.99,0.71-3.97,1.42-6.04,2.16c0-0.51-0.02-0.94,0-1.36c0.05-0.8-0.3-1.38-0.95-1.82
	c-1.06-0.72-2.27-1.07-3.5-1.33c-1.86-0.39-3.74-0.56-5.64-0.49c-2.27,0.08-4.52,0.29-6.65,1.16c-0.53,0.22-1.04,0.52-1.51,0.85
	c-0.51,0.35-0.75,0.87-0.73,1.5c0.01,0.47,0,0.93,0,1.4c-0.04,0.02-0.09,0.04-0.13,0.07c-0.08-0.12-0.24-0.23-0.24-0.35
	c-0.02-1.27-0.02-2.55,0.01-3.82c0-0.12,0.21-0.3,0.36-0.36c1.95-0.73,3.91-1.44,5.87-2.15c0.95-0.35,1.89-0.69,2.84-1.04
	c0.53-0.19,1.05-0.19,1.58,0c4.77,1.74,9.55,3.48,14.32,5.22c0.14,0.05,0.27,0.12,0.4,0.18C47.8,44.68,47.81,44.74,47.81,44.8"/>
<path class="st3" d="M22.49,41.93c-0.15-0.56-0.04-0.82,0.44-1c2.85-1.04,5.71-2.08,8.57-3.12c0.54-0.2,1.08-0.19,1.62,0.01
	c4.72,1.72,9.44,3.45,14.17,5.17c0.59,0.22,0.62,0.27,0.48,1.02c-0.64-0.23-1.27-0.45-1.9-0.68c-4.24-1.55-8.49-3.09-12.73-4.65
	c-0.57-0.21-1.13-0.21-1.7,0c-2.85,1.04-5.71,2.08-8.57,3.12C22.75,41.85,22.62,41.89,22.49,41.93"/>
<path class="st3" d="M16.14,44.61c1.42-0.52,2.84-1.04,4.32-1.58v3.3c-1.46-0.52-2.88-1.03-4.31-1.54
	C16.15,44.73,16.14,44.67,16.14,44.61"/>
<path class="st3" d="M24.66,39.86c-0.72,0.25-1.32,0.49-1.94,0.66c-0.68,0.19-0.93,0.47-0.94,1.2c0,1.99,0,3.98,0,5.97
	c0,0.23-0.01,0.45-0.31,0.4c-0.12-0.02-0.22-0.17-0.32-0.27c-0.02-0.01-0.01-0.05-0.01-0.08c0.01-2.16,0-4.31,0.06-6.47
	c0.02-0.62,0.41-1.09,1.03-1.27C22.98,39.78,23.76,39.69,24.66,39.86"/>
<path class="st3" d="M22.41,55.83h-1.86c0.11-0.45,0.26-0.84,0.28-1.24c0.04-0.71,0.01-1.43,0.01-2.14c0-0.58,0.04-0.63,0.61-0.63
	c0.55,0,0.64,0.05,0.59,0.63C21.96,53.56,21.93,54.67,22.41,55.83"/>
<path class="st3" d="M16.15,44.04c-0.06-0.83-0.06-0.83,0.65-1.09c1.22-0.44,2.43-0.88,3.65-1.33c0.14,0.74,0.1,0.82-0.54,1.06
	C18.67,43.13,17.42,43.58,16.15,44.04"/>
<path class="st3" d="M21.78,49.32c0,0.21,0.04,0.42-0.01,0.62c-0.03,0.12-0.19,0.28-0.29,0.28c-0.1,0-0.3-0.16-0.31-0.26
	c-0.04-0.41-0.03-0.83,0-1.24c0.01-0.09,0.21-0.21,0.33-0.22c0.09-0.01,0.24,0.14,0.27,0.24C21.82,48.93,21.78,49.13,21.78,49.32"/>
<path class="st3" d="M21.48,50.66c0.37-0.11,0.57,0.03,0.58,0.4c0.01,0.39-0.26,0.44-0.55,0.44c-0.3-0.01-0.65,0.04-0.66-0.42
	C20.84,50.62,21.12,50.57,21.48,50.66"/>
</svg>
